<?xml version="1.0" encoding="UTF-8"?>
<svg width="4em" height="4em" viewBox="0 0 813.33 813.33" xmlns="http://www.w3.org/2000/svg">
    <path d="m90.083 699.56c-13.328-3.428-16.14-4.6364-30.503-13.106-19.537-11.521-35.991-28.771-45.016-47.192-3.9818-8.1272-8.5581-21.823-8.5953-25.725-0.014-1.4667-0.92172-4.3853-2.0172-6.4858-2.8645-5.4924-2.8645-45.536 0-51.029 1.0955-2.1005 2.0096-5.6191 2.0314-7.8191 0.0574-5.8027 8.6675-37.665 10.791-39.933 0.65214-0.69666 1.1857-2.0451 1.1857-2.9964 0-2.7704 7.8024-18.78 15.142-31.07 7.794-13.051 11.362-18.29 35.41-52 9.6783-13.567 19.701-27.667 22.274-31.333 29.834-42.528 52.24-70.946 77.265-98 3.731-4.0333 9.6498-10.463 13.153-14.288s7.5063-7.3154 8.8958-7.7564c1.675-0.53164 6.4575 1.5576 14.193 6.2004 25.334 15.205 42.62 31.004 47.528 43.439 1.3902 3.5226 4.595 9.8733 7.1217 14.113 5.7381 9.6277 25.963 30.887 28.505 29.963 1.0152-0.36895 1.6208-1.4958 1.3459-2.5042-0.8106-2.9723-4.1331-19.67-6.2014-31.167-4.0593-22.563-6.0625-30.694-11.005-44.667-3.806-10.761-10.962-20.407-26.426-35.624-8.6182-8.4802-15.157-15.986-15.1-17.333 0.2304-5.4444 61.85-52.376 68.768-52.376 2.3463 0 4.731 2.9748 11.49 14.333 10.575 17.771 18.606 33.402 22.094 43 2.2172 6.102 2.7759 11.811 3.3274 34 0.9526 38.322 3.1666 50.806 12.346 69.617 5.7368 11.756 8.7929 20.795 11.362 33.606 1.9239 9.5926 3.0547 9.3212 5.9135-1.4192 2.3295-8.752 2.4793-25.587 0.3787-42.558-1.3238-10.695-1.2123-16.289 0.691-34.667 1.2482-12.052 2.9659-25.814 3.817-30.58 2.1333-11.948 2.0814-35.033-0.1004-44.667-2.4628-10.874-10.079-37.533-12.19-42.667-0.603-1.4667-2.4485-6.9856-4.1011-12.264-2.482-7.9277-2.7061-9.9576-1.2877-11.667 0.9444-1.138 2.7952-2.069 4.1128-2.069 1.3177 0 5.9806-0.9184 10.362-2.0409 5.6239-1.4408 12.992-1.9308 25.059-1.6667 19.639 0.42998 18.366-0.45505 22.581 15.708 1.2431 4.7667 3.017 11.367 3.942 14.667 1.7887 6.3814 4.5295 16.926 7.7981 30 1.1 4.4 2.9327 11.6 4.0726 16 4.6472 17.938 6.1294 32.949 6.112 61.902-0.014 22.928-0.5834 32.147-2.8072 45.432-3.0604 18.283-4.8127 44.02-2.9934 43.966 1.352-0.0404 4.3034-6.5543 8.442-18.632 1.6333-4.7667 3.4789-9.8667 4.1013-11.333 0.6224-1.4667 2.4863-5.9667 4.1419-10 1.6556-4.0333 5.5085-11.533 8.562-16.667 6.0725-10.209 8.3794-16.181 12.102-31.333 2.1907-8.9174 2.4574-16.135 2.4628-66.667l0.01-56.667 3.6845 0.43108c2.1051 0.2463 5.6667-0.79403 8.309-2.427 2.5435-1.572 5.1882-2.5098 5.8772-2.084 0.6889 0.4258 2.2999 3.618 3.5799 7.0937 4.5379 12.322 10.962 15.687 15.883 8.3196 1.4667-2.1958 3.2667-3.9932 4-3.9943 1.2839-1e-3 6 13.934 6 17.73 0 2.3312 4.2611 6.2674 6.7717 6.2553 1.0423-5e-3 3.3224-2.105 5.0669-4.6667 6.1275-8.9977 9.4948-5.078 9.4948 11.053 0 6.5976 0.5786 8.1268 5.4773 14.476l5.4774 7.0997 0.3447 18.357c0.4504 23.979 4.0751 34.408 16.46 47.357 7.5686 7.9137 10.127 6.3367 6.4458-3.973-4.1504-11.624-5.0669-14.849-6.9214-24.36-2.4381-12.504-2.4352-25.49 0.011-46 2.8715-24.084 9.3891-52.95 14.837-65.712 1.028-2.4082 1.8691-4.9911 1.8691-5.7398 0-1.2202 2.6991-7.8449 7.0139-17.215 11.218-24.36 28.332-39.629 40.505-36.138 13.329 3.8227 38.964 29.224 59.698 59.154 8.1471 11.76 10.116 17.712 10.116 30.572 0 14.783-0.3461 15.199-13.619 16.352-16.024 1.3923-36.172 6.7543-41.152 10.952-1.1577 0.97572-2.7723 1.774-3.588 1.774-0.8156 0-1.9062 0.68478-2.4234 1.5217-1.0196 1.6497 0.2703 1.5509 27.45-2.1029 24.593-3.3061 44.084-2.2599 51.297 2.7533 1.4465 1.0054 4.8537 1.828 7.5714 1.828 5.3047 0 8.0104 1.9637 11.197 8.1263 1.4976 2.8962 2.9584 3.8737 5.7891 3.8737 4.4936 0 10.812 4.5759 10.812 7.8301 0 3.3206 2.6679 5.5032 6.7267 5.5032 4.1219 0 7.9768 3.8016 9.9055 9.7686 1.0334 3.1968 2.2607 4.3342 5.0199 4.6519 4.0753 0.46921 7.6812 4.6956 7.6812 9.0029 0 3.1619 3.2048 6.4833 7.5227 7.7964 2.9514 0.89752 4.4276 4.2733 4.4591 10.197 0.011 1.8794 1.4421 6.3794 3.1823 10 1.7402 3.6206 4.5058 9.8829 6.1457 13.916 3.2968 8.1083 6.4641 15.414 8.2499 19.03 1.9673 3.9832-1.9226 4.0748-12.428 0.29236-5.3892-1.9404-11.599-4.0041-13.799-4.586-2.2-0.5819-5.5-1.6907-7.3334-2.4641-9.9353-4.1911-26.081-5.8774-50-5.2224-21.439 0.58711-46.42 3.404-50.043 5.643-4.053 2.5049 2.8345 3.3079 28.455 3.3177 33.136 0.012 52.209 2.1754 70.255 7.9667 17.375 5.5759 37.333 15.558 37.333 18.672 0 1.3189-0.9 2.7434-2 3.1655-1.1 0.42211-2 1.3925-2 2.1563 0 3.0564-10.275 15.979-21.226 26.695-6.9631 6.8136-12.565 13.593-14.047 17-2.6373 6.0627-5.0507 6.9934-8.9604 3.4551-3.4916-3.1598-7.8694-0.78844-11.14 6.034-2.9597 6.175-3.4158 6.3658-8.0137 3.3532-4.1464-2.7168-5.5387-1.6556-10.654 8.1209-2.1208 4.0536-4.6495 7.3701-5.6194 7.3701s-3.0025-2.1-4.5168-4.6667c-1.5144-2.5667-3.5942-4.6667-4.6217-4.6667-2.4675 0-6.9941 4.6137-8.5552 8.7199-1.5974 4.2013-4.4165 4.1804-7.1905-0.0532-2.79-4.2581-6.7886-4.2581-9.5786 0-2.647 4.0399-5.0911 4.24-7.6237 0.62417-2.0658-2.9493-2.0693-2.949-22.92 2.3265-9.7544 2.4679-35.493 11.012-37.333 12.392-0.7333 0.55017-5.5333 2.3564-10.667 4.0138-5.1334 1.6574-13.578 4.4301-18.767 6.1616-14.527 4.848-14.516 4.8525-16.648-6.6819-1.1615-6.2829-0.985-8.1322 1.2478-13.077 1.4303-3.1677 3.355-8.1594 4.277-11.093 2.4286-7.7262 6.3448-27.827 5.6512-29.005-0.7192-1.222-5.4972 4.6349-8.9776 11.005-2.802 5.1284-17.082 23.735-22.951 29.904-2.9014 3.0499-3.6678 5.0585-3.5033 9.1822 0.2913 7.306 7.5699 28.9 13.79 40.914 11.501 22.211 17.299 28.244 28.806 29.969 8.1917 1.2284 21.357 9.7793 31.408 20.399 7.4912 7.9154 7.6667 8.275 7.6667 15.709 0 8.6779-2.5112 13.839-11.205 23.03-11.111 11.746-17.286 12.267-36.795 3.1036-10.157-4.7708-38.557-24.323-43.241-29.77-6.127-7.1242-12.73-18.757-18.921-33.337-2.5934-6.1069-5.5678-12.994-6.6097-15.305-1.0429-2.3109-1.8954-4.6981-1.8954-5.3051 0-0.60694-1.4483-5.0163-3.2185-9.7985-1.7703-4.7822-4.4974-13.195-6.0603-18.695s-3.7145-12.919-4.7814-16.486c-2.4969-8.3493-2.4661-19.14 0.068-23.999 1.0955-2.1005 1.9918-4.4098 1.9918-5.1318s0.8552-3.2034 1.9005-5.5142c13.085-28.928 14.069-31.396 12.818-32.17-3.1935-1.9737-25.478 23.332-31.674 35.968-4.2553 8.6784-6.1498 22.857-4.3865 32.827 1.3841 7.8257 8.8848 31.784 12.292 39.261 1.9721 4.3284-0.027 6.4506-10.847 11.512-13.469 6.3011-21.395 8.687-36.975 11.13-13.362 2.0953-15.479 2.0982-31.722 0.0448-27.691-3.5007-70.992-10.578-98.738-16.138-5.1334-1.0287-11.882-2.2452-14.996-2.7033s-6.8917-1.8305-8.3936-3.0497c-2.5109-2.0384-2.6098-2.7793-1.2289-9.2058 0.9077-4.2245 1.3247-16.355 1.0543-30.667-0.509-26.942-1.3671-29.788-11.992-39.773-9.0386-8.4947-15.272-10.571-31.739-10.571-13.643 0-15.756 0.37783-38.038 6.802-7.871 2.2694-32.394 10.312-40 13.119-2.9333 1.0825-8.3333 3.0715-12 4.42-4.8866 1.7972-6.6666 3.147-6.6666 5.0553 0 2.3098 1.1026 2.6478 9.776 2.9973 9.0282 0.36383 22.408-1.5135 52.224-7.3276 5.5-1.0725 17.265-2.2605 26.144-2.6401 18.796-0.80341 22.344 0.34004 28.114 9.058 3.3684 5.0899 3.5745 6.2929 3.4859 20.341-0.052 8.2122-1.015 19.111-2.1405 24.22-8.2296 37.354-8.3684 42.36-1.552 55.971 2.8675 5.726 10.429 16.154 19.278 26.586 17.318 20.416 21.337 28.605 21.337 43.478 0 13.568-4.3659 20.615-13.712 22.131-8.2872 1.3448-14.494-2.6356-36.143-23.178-6.1436-5.8297-14.09-12.28-17.658-14.335-9.8137-5.6506-11.154-7.1889-11.154-12.803 0-3.4121-1.0681-6.2937-3.3285-8.98-4.7149-5.6034-10.568-18.09-13.281-28.333-1.8964-7.1597-2.1841-12.25-1.5826-28 0.4043-10.587 1.126-21.8 1.6037-24.916 0.4777-3.1167 0.6031-5.6667 0.2787-5.6667-0.3245 0-5.4097 2.4201-11.3 5.378-12.663 6.3582-26.715 10.622-35.008 10.622-3.2779 0-8.3798 0.83992-11.338 1.8665-5.7227 1.9861-14.765 4.4032-32.045 8.5659-14.237 3.4296-22.117 7.3187-30.672 15.138-16.215 14.819-29.839 42.989-33.903 70.096-3.9934 26.639 8.639 50.471 33.141 62.523 9.6507 4.7468 10.695 4.9662 23.434 4.9231 12.352-0.0419 13.998-0.37104 22.363-4.4717 15.239-7.471 25.424-20.931 29.661-39.199 5.0152-21.625-7.418-38.109-28.744-38.109-10.47 0-15.452 2.7713-18.776 10.444-2.4544 5.6654-3.4735 17.565-1.5028 17.547 0.55-5e-3 2.4942-2.2025 4.3203-4.8834 4.075-5.9821 13.077-10.338 18.777-9.0861 2.1814 0.47911 5.7518 2.3736 7.9342 4.21 3.7481 3.1538 3.9681 3.8897 3.9681 13.273 0 14.865-5.8588 24.37-18.667 30.284-8.6213 3.9805-28.802 3.9571-37.333-0.0433-7.2858-3.4165-15.198-11.02-19.072-18.328-2.5021-4.7201-2.8692-7.5628-2.8517-22.084 0.0192-16.004 0.18865-17.011 4.2609-25.333 7.6341-15.601 21.011-27.929 36.996-34.095 10.111-3.9003 34.414-3.6007 45.333 0.5587 32.051 12.209 51.236 39.29 51.31 72.429 0.027 11.991-2.4925 23.238-8.3114 37.108-12.075 28.781-30.301 45.359-60.999 55.485-11.163 3.6819-47.738 4.0036-61.21 0.53844zm582.88-378.24c-0.9167-0.36988-2.4167-0.36988-3.3334 0-0.9166 0.36988-0.1666 0.67252 1.6667 0.67252s2.5833-0.30264 1.6667-0.67252zm41.24-24.626c12.196-2.6155 19.736-9.0262 25.427-21.619 6.4167-14.197-1.1261-34.934-15.485-42.573-4.4449-2.3645-7.7464-2.9367-17.019-2.9496-11.181-0.0156-11.714 0.12853-18.965 5.1223-24.775 17.063-18.398 53.517 10.765 61.538 8.2106 2.2582 7.149 2.2247 15.278 0.4815zm-18.237-11.184c-2.1983-1.1867-5.1261-3.166-6.5061-4.3986-3.4717-3.1008-7.4968-12.895-7.4968-18.241 0-7.3416 4.5958-16.116 10.793-20.605 4.9353-3.5751 6.6894-4.0619 14.637-4.0619 8.1552 0 9.5884 0.4253 14.8 4.3919 7.1655 5.4538 10.309 11.636 10.309 20.275 0 8.2886-3.0356 14.554-9.6138 19.842-4.3234 3.4754-6.3971 4.1446-14 4.5177-6.3704 0.31261-10.069-0.17958-12.922-1.7197zm8.9633-25.079c1.644-2.5844 1.1758-4.7523-1.6329-7.561-3.2103-3.2103-5.7624-3.3804-8.5714-0.57143-4.6474 4.6474-0.5648 12.147 5.7497 10.562 1.9039-0.47784 3.9085-1.5712 4.4546-2.4298zm-364.3 330.84c-2.2305-1.1598-5.7595-6.5931-10.667-16.422-8.178-16.381-10.913-20.919-15.91-26.399-2.8901-3.1698-3.3697-4.8327-3.0762-10.667 0.5172-10.28 4.818-25.628 7.1024-25.345 1.0358 0.12827 6.9833 1.2154 13.217 2.416 6.2333 1.2006 15.764 2.9912 21.18 3.9791 5.4156 0.98791 10.356 2.6007 10.98 3.584 0.6232 0.98327 1.1423 4.3902 1.1535 7.571 0.018 5.1982 0.7613 6.542 7.3442 13.284 8.4826 8.6879 10.651 13.986 9.5453 23.322-1.6104 13.597-14.41 24.811-29.512 25.855-5.0236 0.34736-9.2696-0.0932-11.357-1.1784zm312.7-49.4c-0.3015-0.91667-1.5875-5.5084-2.8578-10.204-3.1355-11.591-12.009-20.572-27.747-28.083-6.1991-2.9587-12.14-5.3794-13.203-5.3794-4.066 0-7.7991-4.8435-9.7862-12.697-3.8788-15.33-3.9935-14.523 2.4449-17.184 3.1794-1.3137 7.7511-3.228 10.159-4.2539 8.3308-3.5492 11.219-2.612 15.86 5.1472 5.5337 9.2517 14.383 19.194 19.581 22 6.9996 3.7782 15.991 6.9851 19.588 6.9862 9.495 3e-3 21.322 15.97 21.719 29.322 0.1895 6.3758-0.1691 7.2796-4.2359 10.677-5.2026 4.3466-9.2342 5.3347-21.766 5.3347-6.1856 0-9.3885-0.54714-9.7567-1.6667z" stroke-width="1.3333"/>
</svg>
